  0
SECTION
  2
HEADER
  9
$INSBASE
 10
0.0000
 20
0.0000
  9
$EXTMIN
 10
-23.234421715174822
 20
-23.234421715174818
  9
$EXTMAX
 10
23.234421715174818
 20
23.234421715174808
  9
$LIMMIN
 10
-23.234421715174822
 20
-23.234421715174818
  9
$LIMMAX
 10
23.234421715174818
 20
23.234421715174808
  9
$TEXTSTYLE
  7
STANDARD
  9
$CLAYER
  8
default
  0
ENDSEC
  0
SECTION
  2
TABLES
  0
TABLE
  2
LTYPE
 70
4948253
  0
LTYPE
  2
CONTINUOUS
 70
    64
  3
Solid line
 72
    65
 73
     0
 40
0.0
  0
ENDTAB
  0
TABLE
  2
LAYER
 70
     5
  0
LAYER
  2
default
 70
    64
 62
     7
  6
CONTINUOUS
  0
LAYER
  2
layer1
 70
    64
 62
     7
  6
CONTINUOUS
  0
LAYER
  2
layer9
 70
    64
 62
     7
  6
CONTINUOUS
  0
LAYER
  2
layer15
 70
    64
 62
     7
  6
CONTINUOUS
  0
LAYER
  2
layer14
 70
    64
 62
     7
  6
CONTINUOUS
  0
LAYER
  2
layer12
 70
    64
 62
     7
  6
CONTINUOUS
  0
LAYER
  2
layer16
 70
    64
 62
     7
  6
CONTINUOUS
  0
LAYER
  2
layer5
 70
    64
 62
     7
  6
CONTINUOUS
  0
LAYER
  2
layer6
 70
    64
 62
     7
  6
CONTINUOUS
  0
LAYER
  2
layer4
 70
    64
 62
     7
  6
CONTINUOUS
  0
ENDTAB
  0
TABLE
  2
STYLE
 70
     1
  0
STYLE
  2
STANDARD
 70
     0
 40
0.0
 41
1.0
 50
0.0
 71
     0
 42
0.2
  3
txt
  4

  0
ENDTAB
  0
TABLE
  2
VIEW
 70
     0
  0
ENDTAB
  0
ENDSEC
  0
SECTION
  2
BLOCKS
  0
ENDSEC
  0
SECTION
  2
ENTITIES
  0
LINE
  8
layer1
 10
12.619999999999999
 20
0.0625
 30
0.0
 11
12.619999999999999
 21
0.33735745544929358
 31
0.0
  0
LINE
  8
layer1
 10
13.02
 20
0.0625
 30
0.0
 11
13.02
 21
0.33735745544929358
 31
0.0
  0
LINE
  8
layer9
 10
-11.72701747101962
 20
-1.312031574060337
 30
0.0
 11
-9.1245109628625212
 21
-3.9145380822174412
 31
0.0
  0
LINE
  8
layer9
 10
1.3145245225399651
 20
-11.72452452253996
 30
0.0
 11
3.9170310306970531
 21
-9.1220180143828973
 31
0.0
  0
LINE
  8
layer9
 10
11.934049045079931
 20
-1.1049999999999951
 30
0.0
 11
12.571530336438761
 21
-1.1050000000000031
 31
0.0
  0
LINE
  8
layer9
 10
-11.934049045079959
 20
-1.1049999999999951
 30
0.0
 11
-12.57153033643875
 21
-1.1049999999999951
 31
0.0
  0
LINE
  8
layer9
 10
-1.105
 20
-11.934049045079931
 30
0.0
 11
-1.105000000000012
 21
-12.571530336438761
 31
0.0
  0
LINE
  8
layer9
 10
1.1050000000000031
 20
-11.934049045079931
 30
0.0
 11
1.1050000000000051
 21
-12.571530336438761
 31
0.0
  0
LINE
  8
layer9
 10
9.1220180143828831
 20
-3.9170310306970491
 30
0.0
 11
6.1284702356827996
 21
-0.92348325199698444
 31
0.0
  0
LINE
  8
layer9
 10
3.9170310306970531
 20
-9.1220180143828973
 30
0.0
 11
5.2182842847755806
 21
-7.8207647603043489
 31
0.0
  0
LINE
  8
layer9
 10
3.9170310306970531
 20
-9.1220180143828973
 30
0.0
 11
0.92348325199696024
 21
-6.1284702356828218
 31
0.0
  0
LINE
  8
layer9
 10
-3.9195239791766832
 20
-9.1195250659032592
 30
0.0
 11
-0.92597620047663487
 21
-6.1259772872031908
 31
0.0
  0
LINE
  8
layer9
 10
-9.1245109628625212
 20
-3.9145380822174412
 30
0.0
 11
-7.8232577087839541
 21
-5.215791336295978
 31
0.0
  0
LINE
  8
layer9
 10
-9.1245109628625212
 20
-3.9145380822174412
 30
0.0
 11
-6.1309631841624332
 21
-0.92099030351737265
 31
0.0
  0
LINE
  8
layer9
 10
6.773610328045188
 20
-4.1711298525164393
 30
0.0
 11
7.8207647603043569
 21
-5.218284284775617
 31
0.0
  0
LINE
  8
layer9
 10
5.2182842847755806
 20
-7.8207647603043489
 30
0.0
 11
4.1711298525164251
 21
-6.7736103280451827
 31
0.0
  0
LINE
  8
layer9
 10
-5.220777233255232
 20
-7.8182718118247037
 30
0.0
 11
-4.1736228009960739
 21
-6.7711173795655464
 31
0.0
  0
LINE
  8
layer9
 10
-7.8232577087839541
 20
-5.215791336295978
 30
0.0
 11
-6.776103276524803
 21
-4.1686369040368261
 31
0.0
  0
LINE
  8
layer9
 10
-5.220777233255232
 20
-7.8182718118247037
 30
0.0
 11
-3.9195239791766832
 21
-9.1195250659032592
 31
0.0
  0
LINE
  8
layer9
 10
-3.9195239791766832
 20
-9.1195250659032592
 30
0.0
 11
-1.317017471019583
 21
-11.722031574060351
 31
0.0
  0
LINE
  8
layer9
 10
7.8207647603043569
 20
-5.218284284775617
 30
0.0
 11
9.1220180143828831
 21
-3.9170310306970491
 31
0.0
  0
LINE
  8
layer9
 10
9.1220180143828831
 20
-3.9170310306970491
 30
0.0
 11
11.724524522539969
 21
-1.31452452253996
 31
0.0
  0
LINE
  8
layer15
 10
3.9429941469263801
 20
-12.40859368169111
 30
0.0
 11
4.202217635928533
 21
-13.375416514646981
 31
0.0
  0
LINE
  8
layer15
 10
2.79359119796792
 20
-12.71677035330263
 30
0.0
 11
3.0528146869700592
 21
-13.68359318625849
 31
0.0
  0
LINE
  8
layer14
 10
-3.9429941469263881
 20
-12.408593681691119
 30
0.0
 11
-4.2022176359285046
 21
-13.375416514646981
 31
0.0
  0
LINE
  8
layer14
 10
-2.7935911979679129
 20
-12.71677035330263
 30
0.0
 11
-3.0528146869700441
 21
-13.68359318625849
 31
0.0
  0
LINE
  8
layer15
 10
12.408593681691141
 20
-3.9429941469263952
 30
0.0
 11
13.375416514647
 21
-4.2022176359284984
 31
0.0
  0
LINE
  8
layer15
 10
12.716770353302611
 20
-2.7935911979678991
 30
0.0
 11
13.683593186258509
 21
-3.0528146869700228
 31
0.0
  0
LINE
  8
layer14
 10
12.408593681691141
 20
3.9429941469264018
 30
0.0
 11
13.375416514647
 21
4.2022176359284984
 31
0.0
  0
LINE
  8
layer14
 10
3.9429941469264018
 20
12.40859368169115
 30
0.0
 11
4.2022176359284984
 21
13.375416514646989
 31
0.0
  0
LINE
  8
layer14
 10
2.7935911979678991
 20
12.716770353302611
 30
0.0
 11
3.0528146869700228
 21
13.683593186258509
 31
0.0
  0
LINE
  8
layer14
 10
-3.9429941469263881
 20
12.40859368169111
 30
0.0
 11
-4.2022176359285259
 21
13.375416514646989
 31
0.0
  0
LINE
  8
layer14
 10
-2.7935911979678991
 20
12.716770353302611
 30
0.0
 11
-3.0528146869700299
 21
13.6835931862585
 31
0.0
  0
LINE
  8
layer14
 10
-12.71677035330266
 20
-2.7935911979679058
 30
0.0
 11
-13.6835931862585
 21
-3.0528146869700228
 31
0.0
  0
LINE
  8
layer14
 10
-12.4085936816911
 20
-3.9429941469263801
 30
0.0
 11
-13.375416514646981
 21
-4.2022176359284984
 31
0.0
  0
LINE
  8
layer14
 10
-12.4085936816911
 20
3.9429941469264018
 30
0.0
 11
-13.375416514646981
 21
4.2022176359285259
 31
0.0
  0
LINE
  8
layer14
 10
-12.716770353302611
 20
2.7935911979679129
 30
0.0
 11
-13.68359318625847
 21
3.0528146869700521
 31
0.0
  0
LINE
  8
layer15
 10
9.6175355599447272
 20
-8.7762981805086895
 30
0.0
 11
10.32532867627793
 21
-9.4840912968419175
 31
0.0
  0
LINE
  8
layer15
 10
8.7762981805086966
 20
-9.6175355599447059
 30
0.0
 11
9.4840912968419246
 21
-10.32532867627793
 31
0.0
  0
LINE
  8
layer15
 10
-9.6175355599447112
 20
-8.7762981805086895
 30
0.0
 11
-10.32532867627793
 21
-9.4840912968419033
 31
0.0
  0
LINE
  8
layer15
 10
-8.7762981805086895
 20
-9.6175355599447059
 30
0.0
 11
-9.4840912968419246
 21
-10.32532867627792
 31
0.0
  0
LINE
  8
layer15
 10
9.6175355599447272
 20
8.7762981805086895
 30
0.0
 11
10.32532867627793
 21
9.4840912968419104
 31
0.0
  0
LINE
  8
layer15
 10
8.7762981805086966
 20
9.6175355599447059
 30
0.0
 11
9.4840912968419246
 21
10.32532867627793
 31
0.0
  0
LINE
  8
layer15
 10
-9.6175355599447112
 20
8.7762981805087037
 30
0.0
 11
-10.32532867627793
 21
9.4840912968419175
 31
0.0
  0
LINE
  8
layer15
 10
-8.7762981805086895
 20
9.6175355599447272
 30
0.0
 11
-9.4840912968419246
 21
10.325328676277939
 31
0.0
  0
LINE
  8
layer12
 10
-1.713897960374591
 20
15.5863896867008
 30
0.0
 11
-1.823751876012849
 21
16.585414119505181
 31
0.0
  0
LINE
  8
layer12
 10
-6.3074418110343302
 20
14.351804817721341
 30
0.0
 11
-6.7132916049258924
 21
15.275265897783051
 31
0.0
  0
LINE
  8
layer12
 10
-9.2764661522465897
 20
12.639887150421959
 30
0.0
 11
-9.8721225145792317
 21
13.451514021770199
 31
0.0
  0
LINE
  8
layer12
 10
-12.639887150421989
 20
9.276466152246666
 30
0.0
 11
-13.45151402177016
 21
9.8721225145792886
 31
0.0
  0
LINE
  8
layer12
 10
-15.586389686700659
 20
1.7138979603746729
 30
0.0
 11
-16.58541411950516
 21
1.8237518760129341
 31
0.0
  0
LINE
  8
layer16
 10
-15.58638968670077
 20
-1.7138979603745681
 30
0.0
 11
-16.585414119505181
 21
-1.8237518760128211
 31
0.0
  0
LINE
  8
layer12
 10
-1.717132767839409
 20
-15.615807406351429
 30
0.0
 11
-1.823751876012849
 21
-16.585414119505181
 31
0.0
  0
LINE
  8
layer12
 10
-6.3074418110343
 20
-14.351804817721259
 30
0.0
 11
-6.7132916049258924
 21
-15.27526589778304
 31
0.0
  0
LINE
  8
layer12
 10
-9.2764661522466199
 20
-12.639887150421981
 30
0.0
 11
-9.8721225145792317
 21
-13.451514021770169
 31
0.0
  0
LINE
  8
layer12
 10
-12.639887150421931
 20
-9.2764661522466092
 30
0.0
 11
-13.45151402177016
 21
-9.8721225145792673
 31
0.0
  0
LINE
  8
layer12
 10
-14.35180481772128
 20
6.3074418110343302
 30
0.0
 11
-15.275265897783029
 21
6.7132916049259128
 31
0.0
  0
LINE
  8
layer12
 10
-14.3518048177213
 20
-6.3074418110343373
 30
0.0
 11
-15.275265897783029
 21
-6.7132916049259057
 31
0.0
  0
LINE
  8
layer9
 10
1.3145245225399651
 20
-11.72452452253996
 30
0.0
 11
1.1050000000000031
 21
-11.934049045079931
 31
0.0
  0
LINE
  8
layer9
 10
11.724524522539969
 20
-1.31452452253996
 30
0.0
 11
11.934049045079931
 21
-1.1049999999999951
 31
0.0
  0
LINE
  8
layer9
 10
-11.72452452253996
 20
1.314524522539966
 30
0.0
 11
-11.640062111410174
 21
1.3989869336697531
 31
0.0
  0
LINE
  8
layer9
 10
-11.640062111410174
 20
1.3989869336697531
 30
0.0
 11
-9.1220180143828955
 21
3.9170310306970562
 31
0.0
  0
LINE
  8
layer9
 10
-5.2182842847756152
 20
7.820764760304356
 30
0.0
 11
-3.9170310306970482
 21
9.1220180143828848
 31
0.0
  0
LINE
  8
layer9
 10
-1.1049999999999931
 20
11.934049045079931
 30
0.0
 11
-1.1050000000000011
 21
12.571530336438761
 31
0.0
  0
LINE
  8
layer9
 10
-11.934049045079931
 20
1.1050000000000051
 30
0.0
 11
-12.571530336438761
 21
1.1050000000000071
 31
0.0
  0
LINE
  8
layer9
 10
-3.9170310306970482
 20
9.1220180143828848
 30
0.0
 11
-1.3145245225399591
 21
11.724524522539969
 31
0.0
  0
LINE
  8
layer9
 10
-3.9170310306970482
 20
9.1220180143828848
 30
0.0
 11
-0.92348325199698278
 21
6.1284702356827996
 31
0.0
  0
LINE
  8
layer9
 10
-9.1220180143828955
 20
3.9170310306970562
 30
0.0
 11
-7.8207647603043489
 21
5.2182842847755833
 31
0.0
  0
LINE
  8
layer9
 10
-9.1220180143828955
 20
3.9170310306970562
 30
0.0
 11
-6.1284702356828227
 21
0.92348325199696135
 31
0.0
  0
LINE
  8
layer9
 10
-4.1711298525164384
 20
6.7736103280451889
 30
0.0
 11
-5.2182842847756152
 21
7.820764760304356
 31
0.0
  0
LINE
  8
layer9
 10
-7.8207647603043489
 20
5.2182842847755833
 30
0.0
 11
-6.7736103280451818
 21
4.1711298525164251
 31
0.0
  0
LINE
  8
layer9
 10
-11.72452452253996
 20
1.314524522539966
 30
0.0
 11
-11.934049045079931
 21
1.1050000000000051
 31
0.0
  0
LINE
  8
layer9
 10
-1.3145245225399591
 20
11.724524522539969
 30
0.0
 11
-1.1049999999999931
 21
11.934049045079931
 31
0.0
  0
LINE
  8
layer9
 10
-11.72701747101962
 20
-1.312031574060337
 30
0.0
 11
-11.934049045079959
 21
-1.1049999999999951
 31
0.0
  0
LINE
  8
layer9
 10
-1.317017471019583
 20
-11.722031574060351
 30
0.0
 11
-1.105
 21
-11.934049045079931
 31
0.0
  0
LINE
  8
layer9
 10
1.3120315740603239
 20
11.7270174710196
 30
0.0
 11
3.9145380822174292
 21
9.1245109628625105
 31
0.0
  0
LINE
  8
layer9
 10
7.8182718118246912
 20
5.220777233255216
 30
0.0
 11
9.1195250659032503
 21
3.9195239791766681
 31
0.0
  0
LINE
  8
layer9
 10
1.1049999999999831
 20
11.93404904507994
 30
0.0
 11
1.1049999999999831
 21
12.571530336438739
 31
0.0
  0
LINE
  8
layer9
 10
11.93404904507992
 20
1.104999999999984
 30
0.0
 11
12.571530336438739
 21
1.1049999999999971
 31
0.0
  0
LINE
  8
layer9
 10
9.1195250659032503
 20
3.9195239791766681
 30
0.0
 11
11.72203157406034
 21
1.317017471019569
 31
0.0
  0
LINE
  8
layer9
 10
9.1195250659032503
 20
3.9195239791766681
 30
0.0
 11
6.1259772872031792
 21
0.92597620047662088
 31
0.0
  0
LINE
  8
layer9
 10
3.9145380822174292
 20
9.1245109628625105
 30
0.0
 11
5.2157913362959656
 21
7.8232577087839408
 31
0.0
  0
LINE
  8
layer9
 10
3.9145380822174292
 20
9.1245109628625105
 30
0.0
 11
0.92099030351736055
 21
6.130963184162419
 31
0.0
  0
LINE
  8
layer9
 10
7.8182718118246912
 20
5.220777233255216
 30
0.0
 11
6.7711173795655331
 21
4.1736228009960596
 31
0.0
  0
LINE
  8
layer9
 10
5.2157913362959656
 20
7.8232577087839408
 30
0.0
 11
4.1686369040368136
 21
6.7761032765247888
 31
0.0
  0
LINE
  8
layer9
 10
1.3120315740603239
 20
11.7270174710196
 30
0.0
 11
1.1049999999999831
 21
11.93404904507994
 31
0.0
  0
LINE
  8
layer9
 10
11.72203157406034
 20
1.317017471019569
 30
0.0
 11
11.93404904507992
 21
1.104999999999984
 31
0.0
  0
LINE
  8
layer9
 10
0.92348325199696024
 20
-6.1284702356828218
 30
0.0
 11
0.74818220492558529
 21
-5.9531691886114473
 31
0.0
  0
LINE
  8
layer9
 10
-0.92597620047663487
 20
-6.1259772872031908
 30
0.0
 11
-0.75260995809832887
 21
-5.952611044824887
 31
0.0
  0
LINE
  8
layer9
 10
6.1259772872031792
 20
0.92597620047662088
 30
0.0
 11
5.952611044824887
 21
0.75260995809833009
 31
0.0
  0
LINE
  8
layer9
 10
6.1284702356827996
 20
-0.92348325199698444
 30
0.0
 11
5.9531691886114411
 21
-0.74818220492562804
 31
0.0
  0
LINE
  8
layer9
 10
-6.1309631841624332
 20
-0.92099030351737265
 30
0.0
 11
-5.9537243586636706
 21
-0.74375147801861063
 31
0.0
  0
LINE
  8
layer9
 10
-6.1284702356828227
 20
0.92348325199696135
 30
0.0
 11
-5.9531691886114491
 21
0.74818220492558563
 31
0.0
  0
LINE
  8
layer9
 10
0.92099030351736055
 20
6.130963184162419
 30
0.0
 11
0.74375147801861152
 21
5.9537243586636697
 31
0.0
  0
LINE
  8
layer9
 10
-0.92348325199698278
 20
6.1284702356827996
 30
0.0
 11
-0.74818220492562915
 21
5.9531691886114428
 31
0.0
  0
LINE
  8
layer15
 10
12.716770353302641
 20
2.7935911979679129
 30
0.0
 11
13.6839946421207
 21
3.052758165056479
 31
0.0
  0
LINE
  8
layer12
 10
1.7138979603746101
 20
15.5863896867008
 30
0.0
 11
1.8237518760128679
 21
16.585414119505181
 31
0.0
  0
LINE
  8
layer12
 10
6.307441811034348
 20
14.351804817721341
 30
0.0
 11
6.713291604925911
 21
15.275265897783051
 31
0.0
  0
LINE
  8
layer12
 10
9.2764661522466092
 20
12.639887150421959
 30
0.0
 11
9.8721225145792513
 21
13.451514021770199
 31
0.0
  0
LINE
  8
layer12
 10
12.639887150422011
 20
9.276466152246666
 30
0.0
 11
13.45151402177018
 21
9.8721225145792886
 31
0.0
  0
LINE
  8
layer12
 10
15.586389686700681
 20
1.7138979603746729
 30
0.0
 11
16.585414119505181
 21
1.8237518760129341
 31
0.0
  0
LINE
  8
layer12
 10
1.7171327678394279
 20
-15.615807406351429
 30
0.0
 11
1.8237518760128679
 21
-16.585414119505181
 31
0.0
  0
LINE
  8
layer12
 10
6.3074418110343178
 20
-14.351804817721259
 30
0.0
 11
6.713291604925911
 21
-15.27526589778304
 31
0.0
  0
LINE
  8
layer12
 10
9.2764661522466394
 20
-12.639887150421981
 30
0.0
 11
9.8721225145792513
 21
-13.451514021770169
 31
0.0
  0
LINE
  8
layer12
 10
12.63988715042195
 20
-9.2764661522466092
 30
0.0
 11
13.45151402177018
 21
-9.8721225145792673
 31
0.0
  0
LINE
  8
layer12
 10
14.3518048177213
 20
6.3074418110343302
 30
0.0
 11
15.275265897783051
 21
6.7132916049259128
 31
0.0
  0
LINE
  8
layer12
 10
14.35180481772132
 20
-6.3074418110343373
 30
0.0
 11
15.275265897783051
 21
-6.7132916049259057
 31
0.0
  0
LINE
  8
layer12
 10
15.586389686700789
 20
-1.7138979603745801
 30
0.0
 11
16.585414119505199
 21
-1.8237518760128211
 31
0.0
  0
ARC
  8
layer5
 10
3.5527136788005009e-015
 20
5.773159728050814e-015
 30
0
 40
21.699999999999999
 50
360
 51
19.12641041846004
  0
ARC
  8
layer5
 10
3.5527136788005009e-015
 20
-8.8817841970012523e-016
 30
0
 40
21.699999999999999
 50
19.126410418460058
 51
90.000000000000014
  0
ARC
  8
layer5
 10
-2.2321549708127225e-015
 20
3.5527136788005009e-015
 30
0
 40
21.699999999999996
 50
90
 51
180
  0
ARC
  8
layer5
 10
-3.5527136788005009e-015
 20
-3.5527136788005009e-015
 30
0
 40
21.699999999999996
 50
180
 51
270
  0
ARC
  8
layer5
 10
-4.5140562824199859e-016
 20
3.5527136788005009e-015
 30
0
 40
21.700000000000003
 50
270
 51
360
  0
ARC
  8
layer9
 10
-4.4408920985006262e-016
 20
-4.4408920985006262e-016
 30
0
 40
3.0000000000000004
 50
8.4814791505693754e-015
 51
89.999999999999986
  0
ARC
  8
layer9
 10
-4.8830753804004371e-016
 20
8.8817841970012523e-016
 30
0
 40
2.9999999999999996
 50
89.999999999999986
 51
180
  0
ARC
  8
layer9
 10
-8.8817841970012523e-016
 20
-6.6613381477509392e-016
 30
0
 40
2.9999999999999996
 50
180
 51
270
  0
ARC
  8
layer9
 10
-2.6567143916655901e-016
 20
4.4408920985006262e-016
 30
0
 40
3.0000000000000004
 50
270
 51
360
  0
ARC
  8
layer5
 10
-7.7381657058950282e-005
 20
0.03125
 30
0
 40
12.620116072426278
 50
359.85812373441922
 51
0.14187626558075297
  0
ARC
  8
layer5
 10
0.0077368258339198803
 20
-0.073641078689469175
 30
0
 40
12.618958046110226
 50
1.8664494062621397
 51
5.3593757131644759
  0
ARC
  8
layer5
 10
0.0011531586786066583
 20
0.0011531586786042158
 30
0
 40
12.618750343843406
 50
5.0184609271553224
 51
84.981539072844754
  0
ARC
  8
layer5
 10
-4.2170035703836817e-005
 20
-0.00096138255931066396
 30
0
 40
12.620961382629758
 50
84.976973131482694
 51
89.999808559348637
  0
ARC
  8
layer5
 10
4.217003544336703e-005
 20
-0.00096138255930711125
 30
0
 40
12.620961382629758
 50
90.00019144065017
 51
95.023026868516212
  0
ARC
  8
layer5
 10
0.0011213883869125585
 20
-0.0011213883869132246
 30
0
 40
12.621215310722221
 50
95.027843718591399
 51
174.97215628140856
  0
ARC
  8
layer5
 10
0.0010509175961157524
 20
-0.0019223622273596419
 30
0
 40
12.621215333925182
 50
174.96850610214577
 51
179.70754436934902
  0
ARC
  8
layer5
 10
0.0023313888466987009
 20
0.031249999996053768
 30
0
 40
12.622370072706802
 50
179.85814906956375
 51
180.14185093040041
  0
ARC
  8
layer5
 10
0
 20
9.248157795127554e-014
 30
0
 40
12.619999999999999
 50
180.0000000000004
 51
185.02321830916708
  0
ARC
  8
layer5
 10
2.1316282072803006e-014
 20
7.9936057773011271e-015
 30
0
 40
12.620000000000013
 50
185.02321830916668
 51
264.97678169083315
  0
ARC
  8
layer5
 10
-4.4853010194856324e-014
 20
1.5987211554602254e-014
 30
0
 40
12.620000000000017
 50
264.97678169083349
 51
270.00000000000023
  0
ARC
  8
layer5
 10
3.807173234447203e-014
 20
1.9539925233402755e-014
 30
0
 40
12.620000000000019
 50
269.99999999999983
 51
275.02321830916651
  0
ARC
  8
layer5
 10
-1.6653345369377348e-014
 20
1.5987211554602254e-014
 30
0
 40
12.620000000000022
 50
275.02321830916674
 51
354.97678169083326
  0
ARC
  8
layer5
 10
0
 20
-3.6859404417555197e-014
 30
0
 40
12.620000000000001
 50
354.97678169083349
 51
1.6734455693278726e-013
  0
ARC
  8
layer6
 10
-7.5004368225606299e-005
 20
0.03125
 30
0
 40
13.020112506498331
 50
359.86248238423758
 51
0.13751761576241042
  0
ARC
  8
layer6
 10
0.0056325813295217131
 20
-0.022472234531749347
 30
0
 40
13.019340870948248
 50
1.583747473457455
 51
12.491716480569906
  0
ARC
  8
layer6
 10
0.00063027864327658278
 20
0.0001689896261729551
 30
0
 40
13.019348141608885
 50
12.389673627598787
 51
17.62847155892376
  0
ARC
  8
layer6
 10
-0.00015957247934750285
 20
-7.0497635899169353e-005
 30
0
 40
13.020173428725284
 50
17.628423327787935
 51
30.04236725568536
  0
ARC
  8
layer6
 10
-0.0001407438911655845
 20
-0.00010305397926746451
 30
0
 40
13.020173428725446
 50
30.042532755221618
 51
42.381334094804693
  0
ARC
  8
layer6
 10
-0.00012254745791651089
 20
-0.00012254745808704115
 30
0
 40
13.020173127311814
 50
42.381451434583418
 51
47.618548565417548
  0
ARC
  8
layer6
 10
-8.8636262825403378e-005
 20
-0.00015349232722883244
 30
0
 40
13.020173127258806
 50
47.618750585822355
 51
72.37149249792445
  0
ARC
  8
layer6
 10
-4.4342494876392635e-005
 20
-0.00016538368993401775
 30
0
 40
13.020171046178111
 50
72.371694108503036
 51
77.610160704978412
  0
ARC
  8
layer6
 10
-2.3608372513361786e-005
 20
-0.00021749898909462217
 30
0
 40
13.020217499010498
 50
77.610299027533628
 51
89.999896110790289
  0
ARC
  8
layer6
 10
2.3608372513485788e-005
 20
-0.00021749898909639853
 30
0
 40
13.020217499010499
 50
90.000103889209711
 51
102.38970097246636
  0
ARC
  8
layer6
 10
5.5720759266630893e-005
 20
-0.00020782106858341365
 30
0
 40
13.020214936549516
 50
102.38984813045907
 51
107.62829705606347
  0
ARC
  8
layer6
 10
0.00012711559992872878
 20
-0.00022012739099430689
 30
0
 40
13.020248286398145
 50
107.62858007673057
 51
132.38117683952152
  0
ARC
  8
layer6
 10
0.00017574858533819793
 20
-0.0001757485853062235
 30
0
 40
13.020248286507201
 50
132.38146656064947
 51
137.61853343935067
  0
ARC
  8
layer6
 10
0.00021791832369189024
 20
-0.00012583994351622607
 30
0
 40
13.020245794742689
 50
137.61882075451686
 51
162.371422329231
  0
ARC
  8
layer6
 10
0.00022480569961125241
 20
-6.0274660211412368e-005
 30
0
 40
13.020232502709129
 50
162.3717064801088
 51
167.61014833336768
  0
ARC
  8
layer6
 10
0.00023250266456109614
 20
-2.5236942640116666e-005
 30
0
 40
13.020232502689016
 50
167.61030619396766
 51
179.99988894435634
  0
ARC
  8
layer6
 10
3.1974423109204508e-014
 20
-2.1826984664130578e-013
 30
0
 40
13.020000000000033
 50
179.99999999999906
 51
192.389804861675
  0
ARC
  8
layer6
 10
-1.5276668818842154e-013
 20
5.0492943159952119e-013
 30
0
 40
13.020000000000008
 50
192.3898048616783
 51
197.62834032485026
  0
ARC
  8
layer6
 10
5.8619775700208265e-014
 20
-8.9261931179862586e-014
 30
0
 40
13.020000000000028
 50
197.62834032484747
 51
222.38141659140459
  0
ARC
  8
layer6
 10
-4.0856207306205761e-014
 20
1.9539925233402755e-014
 30
0
 40
13.020000000000028
 50
222.38141659140521
 51
227.6185834085951
  0
ARC
  8
layer6
 10
-4.2632564145606011e-014
 20
2.3092638912203256e-014
 30
0
 40
13.02000000000003
 50
227.61858340859513
 51
252.37165967515227
  0
ARC
  8
layer6
 10
-1.1546319456101628e-014
 20
-1.0658141036401503e-014
 30
0
 40
13.020000000000005
 50
252.3716596751521
 51
257.610195138324
  0
ARC
  8
layer6
 10
-9.1038288019262836e-014
 20
-1.7763568394002505e-015
 30
0
 40
13.020000000000001
 50
257.61019513832434
 51
270.0000000000004
  0
ARC
  8
layer6
 10
9.849238966355594e-014
 20
0
 30
0
 40
13.020000000000001
 50
269.99999999999955
 51
282.3898048616756
  0
ARC
  8
layer6
 10
-1.2123635428906709e-013
 20
-3.907985046680551e-014
 30
0
 40
13.020000000000008
 50
282.38980486167657
 51
287.62834032484847
  0
ARC
  8
layer6
 10
6.7057470687359455e-014
 20
5.1514348342607263e-014
 30
0
 40
13.020000000000039
 50
287.62834032484761
 51
312.38141659140473
  0
ARC
  8
layer6
 10
1.0480505352461478e-013
 20
6.5725203057809267e-014
 30
0
 40
13.020000000000024
 50
312.38141659140456
 51
317.61858340859447
  0
ARC
  8
layer6
 10
-7.1054273576010019e-015
 20
-3.3750779948604759e-014
 30
0
 40
13.020000000000039
 50
317.6185834085951
 51
342.37165967515222
  0
ARC
  8
layer6
 10
-1.1368683772161603e-013
 20
-4.8272497110701806e-013
 30
0
 40
13.020000000000005
 50
342.37165967515421
 51
347.61019513832622
  0
ARC
  8
layer6
 10
-7.1054273576010019e-015
 20
1.1990408665951691e-014
 30
0
 40
13.020000000000007
 50
347.610195138324
 51
359.99999999999994
  0
ARC
  8
layer9
 10
5.4723700902808234
 20
-5.4723700902808199
 30
0
 40
1.8402315921519667
 50
45.000000000000355
 51
135.0000000000004
  0
ARC
  8
layer9
 10
5.4723700902807959
 20
-5.4723700902808279
 30
0
 40
1.840231592151953
 50
134.9999999999996
 51
224.99999999999963
  0
ARC
  8
layer9
 10
-5.474863038760434
 20
-5.4698771418011862
 30
0
 40
1.8402315921519494
 50
315
 51
45.000000000000057
  0
ARC
  8
layer9
 10
-5.4748630387604376
 20
-5.469877141801188
 30
0
 40
1.8402315921519539
 50
45.000000000000021
 51
135.00000000000009
  0
ARC
  8
layer4
 10
-3.5527136788005009e-015
 20
-1.7763568394002505e-015
 30
0
 40
21.300000000000004
 50
4.7782981129968312e-015
 51
89.999999999999986
  0
ARC
  8
layer4
 10
-4.0329552846782718e-015
 20
3.5527136788005009e-015
 30
0
 40
21.299999999999997
 50
89.999999999999986
 51
180
  0
ARC
  8
layer4
 10
-3.5527136788005009e-015
 20
-5.3290705182007514e-015
 30
0
 40
21.299999999999997
 50
180
 51
270
  0
ARC
  8
layer4
 10
-4.7593040771739424e-016
 20
3.5527136788005009e-015
 30
0
 40
21.300000000000004
 50
270
 51
360
  0
ARC
  8
layer12
 10
5.773159728050814e-015
 20
0
 30
0
 40
17.900000000000023
 50
100.29782922002492
 51
109.70217077997472
  0
ARC
  8
layer12
 10
-3.1974423109204508e-014
 20
2.4868995751603507e-014
 30
0
 40
17.899999999999988
 50
130.29782922002491
 51
139.70217077997469
  0
ARC
  8
layer12
 10
-2.990128380394534
 20
16.457157970899203
 30
0
 40
1.1734069156217195
 50
6.2751014251306865
 51
100.29782922002391
  0
ARC
  8
layer12
 10
-5.6390518474510269
 20
15.74738106708954
 30
0
 40
1.1734069156217519
 50
109.7021707799744
 51
203.72489857486732
  0
ARC
  8
layer12
 10
0
 20
1.7763568394002505e-015
 30
0
 40
17.900000000000027
 50
160.29782922002502
 51
169.70217077997461
  0
ARC
  8
layer12
 10
-10.818106123448077
 20
12.757252686694995
 30
0
 40
1.173406915621741
 50
36.275101425131886
 51
130.29782922002425
  0
ARC
  8
layer12
 10
-12.757252686694926
 20
10.818106123448132
 30
0
 40
1.1734069156217584
 50
139.70217077997444
 51
233.72489857486687
  0
ARC
  8
layer12
 10
-15.747381067089549
 20
5.6390518474510856
 30
0
 40
1.1734069156217297
 50
66.275101425130586
 51
160.29782922002369
  0
ARC
  8
layer12
 10
-1.4210854715202004e-014
 20
1.1546319456101628e-014
 30
0
 40
17.900000000000016
 50
190.29782922002491
 51
199.70217077997484
  0
ARC
  8
layer12
 10
-4.4408920985006262e-014
 20
-3.3750779948604759e-014
 30
0
 40
17.899999999999967
 50
220.29782922002511
 51
229.70217077997481
  0
ARC
  8
layer12
 10
-6.3060667798708891e-014
 20
-1.2789769243681803e-013
 30
0
 40
17.899999999999881
 50
250.29782922002525
 51
259.70217077997506
  0
ARC
  8
layer12
 10
-16.457157970899161
 20
2.9901283803946455
 30
0
 40
1.1734069156217481
 50
169.70217077997449
 51
263.7248985748684
  0
ARC
  8
layer12
 10
-16.457157970899189
 20
-2.9901283803945269
 30
0
 40
1.1734069156217417
 50
96.275101425131268
 51
190.29782922002389
  0
ARC
  8
layer12
 10
-15.747381067089535
 20
-5.6390518474510429
 30
0
 40
1.1734069156217555
 50
199.70217077997472
 51
293.72489857486812
  0
ARC
  8
layer12
 10
-12.757252686694958
 20
-10.818106123448116
 30
0
 40
1.1734069156217435
 50
126.27510142513171
 51
220.29782922002414
  0
ARC
  8
layer12
 10
-10.818106123448095
 20
-12.757252686694937
 30
0
 40
1.1734069156217724
 50
229.70217077997376
 51
323.7248985748675
  0
ARC
  8
layer12
 10
-5.6390518474510287
 20
-15.74738106708954
 30
0
 40
1.1734069156217541
 50
156.27510142513216
 51
250.2978292200242
  0
ARC
  8
layer12
 10
-2.9901283803945571
 20
-16.457157970899171
 30
0
 40
1.1734069156217459
 50
259.70217077997512
 51
353.72489857486789
  0
ARC
  8
layer12
 10
-3.448906819513688
 20
15.397206028154097
 30
0
 40
1.7587944591033045
 50
282.23616890839708
 51
283.0150276908272
  0
ARC
  8
layer12
 10
-3.4620922051649203
 20
15.394051858849251
 30
0
 40
1.7587430049727797
 50
283.45668798040475
 51
6.2784791804938154
  0
ARC
  8
layer12
 10
-4.7010295223745233
 20
15.057678198412614
 30
0
 40
1.7546559978314167
 50
203.72115959483108
 51
286.51575693761339
  0
ARC
  8
layer12
 10
-4.7146733462658243
 20
15.053631663238685
 30
0
 40
1.7547127799215325
 50
286.98044797377645
 51
287.79980410997302
  0
ARC
  8
layer12
 10
-10.682675480129998
 20
11.609883135737954
 30
0
 40
1.7568961846810833
 50
312.21945402210474
 51
313.01711945109605
  0
ARC
  8
layer12
 10
-10.692742598243425
 20
11.600341167703665
 30
0
 40
1.7568422870796272
 50
313.46947412995513
 51
36.278644637469057
  0
ARC
  8
layer12
 10
-11.600341167703631
 20
10.692742598243523
 30
0
 40
1.756842287079682
 50
233.72135536252966
 51
316.5305258700418
  0
ARC
  8
layer12
 10
-11.609883135739278
 20
10.68267548012869
 30
0
 40
1.7568961846811695
 50
316.9828805489646
 51
317.7805459779579
  0
ARC
  8
layer12
 10
-15.053631663238974
 20
4.7146733462646946
 30
0
 40
1.7547127799214868
 50
342.2001958900662
 51
343.01955202626164
  0
ARC
  8
layer12
 10
-15.05767819841256
 20
4.7010295223745606
 30
0
 40
1.7546559978313858
 50
343.48424306238502
 51
66.278840405168211
  0
ARC
  8
layer12
 10
-15.394051858849133
 20
3.4620922051649119
 30
0
 40
1.7587430049726869
 50
263.72152081950662
 51
346.54331201959559
  0
ARC
  8
layer12
 10
-15.397206028154081
 20
3.4489068195132635
 30
0
 40
1.7587944591032174
 50
346.98497230918707
 51
347.76383109161736
  0
ARC
  8
layer12
 10
-15.397206028154056
 20
-3.4489068195138106
 30
0
 40
1.7587944591032936
 50
12.236168908402018
 51
13.015027690831637
  0
ARC
  8
layer12
 10
-15.394051858849242
 20
-3.4620922051648844
 30
0
 40
1.7587430049727637
 50
13.456687980403892
 51
96.278479180493179
  0
ARC
  8
layer12
 10
-15.057678198412583
 20
-4.701029522374542
 30
0
 40
1.75465599783141
 50
293.72115959483153
 51
16.51575693761502
  0
ARC
  8
layer12
 10
-15.053631663238747
 20
-4.7146733462655188
 30
0
 40
1.754712779921519
 50
16.980447973767127
 51
17.799804109962388
  0
ARC
  8
layer12
 10
-11.609883135738533
 20
-10.682675480129387
 30
0
 40
1.7568961846811104
 50
42.219454022076953
 51
43.017119451068922
  0
ARC
  8
layer12
 10
-11.600341167703624
 20
-10.69274259824344
 30
0
 40
1.7568422870796296
 50
43.469474129956708
 51
126.27864463746948
  0
ARC
  8
layer12
 10
-10.692742598243481
 20
-11.600341167703649
 30
0
 40
1.7568422870796681
 50
323.72135536253046
 51
46.530525870043626
  0
ARC
  8
layer12
 10
-10.682675480129115
 20
-11.609883135738837
 30
0
 40
1.7568961846811399
 50
46.982880548945069
 51
47.78054597793723
  0
ARC
  8
layer12
 10
-4.7146733462656707
 20
-15.05363166323863
 30
0
 40
1.7547127799214488
 50
72.200195890033697
 51
73.019552026227217
  0
ARC
  8
layer12
 10
-4.7010295223745695
 20
-15.057678198412496
 30
0
 40
1.754655997831333
 50
73.484243062383513
 51
156.27884040516898
  0
ARC
  8
layer12
 10
-3.4985238749048815
 20
-15.419464219266704
 30
0
 40
1.7921788201645885
 50
353.7103027509815
 51
75.599589414958601
  0
ARC
  8
layer12
 10
-3.4706731856130109
 20
-15.426607711539589
 30
0
 40
1.7924021201251261
 50
76.518720041083284
 51
78.122729856519456
  0
ARC
  8
layer9
 10
-5.4723700902808101
 20
5.4723700902808066
 30
0
 40
1.8402315921519723
 50
225.0000000000002
 51
45.000000000000234
  0
ARC
  8
layer9
 10
5.4698771418011738
 20
5.4748630387604242
 30
0
 40
1.8402315921519519
 50
134.99999999999991
 51
314.99999999999989
  0
ARC
  8
layer9
 10
-1.3877787807814457e-014
 20
2.042810365310288e-014
 30
0
 40
6.0000000000000169
 50
262.79412323503914
 51
270.00000000000011
  0
ARC
  8
layer9
 10
5.0252903201746286e-015
 20
2.042810365310288e-014
 30
0
 40
6.0000000000000195
 50
269.99999999999994
 51
277.16326022864769
  0
ARC
  8
layer9
 10
-1.2434497875801753e-014
 20
2.2204460492503131e-015
 30
0
 40
5.9999999999999876
 50
172.83673977135228
 51
187.12061905793107
  0
ARC
  8
layer9
 10
4.1078251911130792e-015
 20
1.6875389974302379e-014
 30
0
 40
5.9999999999999831
 50
82.879380942068963
 51
90.000000000000043
  0
ARC
  8
layer9
 10
-8.6871653154702325e-015
 20
1.6875389974302379e-014
 30
0
 40
5.9999999999999822
 50
89.999999999999915
 51
97.163260228648085
  0
ARC
  8
layer9
 10
1.6875389974302379e-014
 20
8.3266726846886741e-015
 30
0
 40
5.9999999999999813
 50
352.83673977135174
 51
7.2058767649609337
  0
ARC
  8
layer12
 10
3.1086244689504383e-014
 20
1.4210854715202004e-014
 30
0
 40
17.900000000000006
 50
70.297829220025221
 51
79.702170779975063
  0
ARC
  8
layer12
 10
5.6390518474510607
 20
15.747381067089549
 30
0
 40
1.173406915621741
 50
336.27510142513199
 51
70.297829220024781
  0
ARC
  8
layer12
 10
2.9901283803945624
 20
16.457157970899193
 30
0
 40
1.1734069156217304
 50
79.70217077997556
 51
173.72489857486883
  0
ARC
  8
layer12
 10
4.4408920985006262e-014
 20
3.0198066269804258e-014
 30
0
 40
17.899999999999988
 50
40.297829220025221
 51
49.702170779975035
  0
ARC
  8
layer12
 10
12.757252686694956
 20
10.818106123448128
 30
0
 40
1.1734069156217495
 50
306.27510142513279
 51
40.297829220025221
  0
ARC
  8
layer12
 10
10.818106123448096
 20
12.75725268669499
 30
0
 40
1.1734069156217446
 50
49.702170779975418
 51
143.72489857486789
  0
ARC
  8
layer12
 10
1.7763568394002505e-014
 20
5.773159728050814e-015
 30
0
 40
17.90000000000002
 50
10.297829220025347
 51
19.702170779975013
  0
ARC
  8
layer12
 10
16.457157970899182
 20
2.9901283803946397
 30
0
 40
1.1734069156217426
 50
276.2751014251316
 51
10.297829220025392
  0
ARC
  8
layer12
 10
9.5923269327613525e-014
 20
-2.042810365310288e-014
 30
0
 40
17.899999999999945
 50
340.29782922002516
 51
349.70217077997495
  0
ARC
  8
layer12
 10
15.747381067089554
 20
-5.6390518474510447
 30
0
 40
1.1734069156217535
 50
246.27510142513194
 51
340.29782922002533
  0
ARC
  8
layer12
 10
16.457157970899182
 20
-2.9901283803945433
 30
0
 40
1.1734069156217612
 50
349.70217077997489
 51
83.724898574867623
  0
ARC
  8
layer12
 10
6.0396132539608516e-014
 20
-3.5527136788005009e-014
 30
0
 40
17.89999999999997
 50
310.29782922002528
 51
319.70217077997489
  0
ARC
  8
layer12
 10
10.818106123448116
 20
-12.757252686694921
 30
0
 40
1.1734069156217835
 50
216.27510142513307
 51
310.29782922002687
  0
ARC
  8
layer12
 10
12.757252686694976
 20
-10.818106123448116
 30
0
 40
1.1734069156217439
 50
319.70217077997592
 51
53.72489857486822
  0
ARC
  8
layer12
 10
3.1530333899354446e-014
 20
2.1316282072803006e-014
 30
0
 40
17.900000000000041
 50
280.29782922002494
 51
289.70217077997472
  0
ARC
  8
layer12
 10
2.990128380394566
 20
-16.457157970899182
 30
0
 40
1.173406915621735
 50
186.27510142513165
 51
280.29782922002437
  0
ARC
  8
layer12
 10
5.6390518474510447
 20
-15.747381067089538
 30
0
 40
1.1734069156217557
 50
289.70217077997563
 51
23.724898574867705
  0
ARC
  8
layer12
 10
15.74738106708957
 20
5.6390518474510927
 30
0
 40
1.1734069156217226
 50
19.702170779976456
 51
113.72489857486957
  0
ARC
  8
layer12
 10
7.9936057773011271e-015
 20
-1.0658141036401503e-014
 30
0
 40
14.020000000000005
 50
72.661147946153534
 51
77.325548557386981
  0
ARC
  8
layer12
 10
4.7146733462659718
 20
15.053631663238626
 30
0
 40
1.7547127799215276
 50
252.20019589002311
 51
253.0195520262175
  0
ARC
  8
layer12
 10
4.7010295223745384
 20
15.057678198412594
 30
0
 40
1.7546559978314116
 50
253.48424306238508
 51
336.27884040516949
  0
ARC
  8
layer12
 10
3.4620922051649181
 20
15.394051858849238
 30
0
 40
1.7587430049727593
 50
173.72152081950568
 51
256.54331201959496
  0
ARC
  8
layer12
 10
3.4489068195144061
 20
15.397206028153915
 30
0
 40
1.7587944591032822
 50
256.98497230914836
 51
257.76383109157837
  0
ARC
  8
layer12
 10
2.4868995751603507e-014
 20
-3.1974423109204508e-014
 30
0
 40
14.020000000000012
 50
42.668265488627029
 51
47.331734511373597
  0
ARC
  8
layer12
 10
11.609883135740279
 20
10.682675480127623
 30
0
 40
1.756896184681179
 50
222.21945402199466
 51
223.01711945098782
  0
ARC
  8
layer12
 10
11.600341167703638
 20
10.69274259824353
 30
0
 40
1.7568422870796963
 50
223.46947412995837
 51
306.27864463747056
  0
ARC
  8
layer12
 10
10.692742598243424
 20
11.600341167703647
 30
0
 40
1.7568422870796196
 50
143.72135536253006
 51
226.5305258700447
  0
ARC
  8
layer12
 10
10.682675480128236
 20
11.60988313573962
 30
0
 40
1.7568961846811064
 50
226.98288054898322
 51
227.78054597797376
  0
ARC
  8
layer12
 10
2.4868995751603507e-014
 20
-6.6613381477509392e-015
 30
0
 40
14.019999999999991
 50
12.674451442613222
 51
17.33885205384647
  0
ARC
  8
layer12
 10
15.390951806871497
 20
3.4758570390189223
 30
0
 40
1.7586117875876892
 50
193.13748627707665
 51
193.92117942332254
  0
ARC
  8
layer12
 10
15.394285095758622
 20
3.4619280733232576
 30
0
 40
1.7585543635714127
 50
193.45455360857767
 51
276.27151044485106
  0
ARC
  8
layer12
 10
15.057678198412587
 20
4.7010295223745509
 30
0
 40
1.7546559978313976
 50
113.72115959483187
 51
196.51575693761544
  0
ARC
  8
layer12
 10
15.053631663238566
 20
4.7146733462661707
 30
0
 40
1.7547127799215172
 50
196.98044797378938
 51
197.79980410998442
  0
ARC
  8
layer12
 10
2.4868995751603507e-014
 20
-1.9539925233402755e-014
 30
0
 40
14.019999999999978
 50
342.66114794615362
 51
347.32554855738698
  0
ARC
  8
layer12
 10
15.053631663238553
 20
-4.7146733462662311
 30
0
 40
1.7547127799215234
 50
162.20019589001348
 51
163.0195520262086
  0
ARC
  8
layer12
 10
15.057678198412601
 20
-4.7010295223745437
 30
0
 40
1.7546559978314087
 50
163.48424306238493
 51
246.27884040516847
  0
ARC
  8
layer12
 10
15.394051858849254
 20
-3.4620922051649021
 30
0
 40
1.7587430049727708
 50
83.721520819506623
 51
166.54331201959559
  0
ARC
  8
layer12
 10
15.397206028154164
 20
-3.4489068195133936
 30
0
 40
1.7587944591032969
 50
166.98497230918233
 51
167.76383109161225
  0
ARC
  8
layer12
 10
2.6645352591003757e-014
 20
-1.2434497875801753e-014
 30
0
 40
14.019999999999978
 50
312.66826548862701
 51
317.3317345113735
  0
ARC
  8
layer12
 10
10.68267548012833
 20
-11.609883135739635
 30
0
 40
1.7568961846811812
 50
132.21945402202431
 51
133.01711945101871
  0
ARC
  8
layer12
 10
10.692742598243537
 20
-11.600341167703649
 30
0
 40
1.7568422870796989
 50
133.46947412995794
 51
216.2786446374688
  0
ARC
  8
layer12
 10
11.600341167703638
 20
-10.692742598243408
 30
0
 40
1.7568422870796068
 50
53.721355362529764
 51
136.53052587004473
  0
ARC
  8
layer12
 10
11.609883135739912
 20
-10.68267548012791
 30
0
 40
1.7568961846811026
 50
136.98288054899729
 51
137.78054597798717
  0
ARC
  8
layer12
 10
5.773159728050814e-015
 20
1.1901590823981678e-013
 30
0
 40
14.020000000000111
 50
282.78180494571893
 51
287.33885205384684
  0
ARC
  8
layer12
 10
3.4706731856119841
 20
-15.426607711539871
 30
0
 40
1.7924021201251585
 50
101.8772701434451
 51
103.48127995888223
  0
ARC
  8
layer12
 10
3.4985238749049175
 20
-15.419464219266715
 30
0
 40
1.7921788201646043
 50
104.40041058504198
 51
186.28969724901808
  0
ARC
  8
layer12
 10
4.7010295223746095
 20
-15.057678198412454
 30
0
 40
1.7546559978312954
 50
23.721159594830056
 51
106.51575693761725
  0
ARC
  8
layer12
 10
4.7146733462659673
 20
-15.053631663238507
 30
0
 40
1.7547127799214099
 50
106.98044797378235
 51
107.79980410997412
  0
ARC
  8
layer12
 10
-1.7053025658242404e-013
 20
4.4941828036826337e-013
 30
0
 40
14.019999999999524
 50
102.67445144261285
 51
107.33885205384624
  0
ARC
  8
layer12
 10
-4.2277292777725961e-013
 20
1.6520118606422329e-013
 30
0
 40
14.019999999999568
 50
132.66826548862585
 51
137.33173451137245
  0
ARC
  8
layer12
 10
-1.4210854715202004e-013
 20
0
 30
0
 40
14.019999999999841
 50
162.66114794615333
 51
167.32554855738667
  0
ARC
  8
layer12
 10
-3.659295089164516e-013
 20
7.5939254884360707e-014
 30
0
 40
14.019999999999653
 50
192.67445144261364
 51
197.33885205384715
  0
ARC
  8
layer12
 10
1.0480505352461478e-013
 20
-1.1546319456101628e-013
 30
0
 40
14.019999999999962
 50
222.66826548862605
 51
227.33173451137256
  0
ARC
  8
layer12
 10
-3.1796787425264483e-013
 20
1.4210854715202004e-014
 30
0
 40
14.019999999999905
 50
252.66114794615459
 51
257.21819505428243
  0
ENDSEC
  0
EOF
